<svg id="Layer_1" data-name="Layer 1" xmlns="http://www.w3.org/2000/svg" viewBox="0 0 159.86 30.22"><defs><style>.cls-1{fill:#e30613;}.cls-2,.cls-3,.cls-4{fill:none;stroke-miterlimit:10;}.cls-2,.cls-3{stroke:#fff;}.cls-2{stroke-width:1.5px;}.cls-4{stroke:#1d1d1b;stroke-width:1px;}</style></defs><title>logo-1</title><rect class="cls-1" x="0.09" y="0.13" width="30.97" height="30.02"/><path class="cls-2" d="M25.6,11.85c-.06-.19-.11-.38-.18-.57a10.7,10.7,0,1,0-.7,8.85"/><path class="cls-3" d="M25.67,12.1c0-.08-.05-.16-.07-.25"/><path class="cls-2" d="M9.67,11.43a14.2,14.2,0,0,1,8.82,0c5,1.53,8.34,0,8.34,0"/><path class="cls-2" d="M9.67,15.41a14.28,14.28,0,0,1,8.82,0c5,1.54,8.34,0,8.34,0"/><path class="cls-2" d="M9.67,19.4a14.28,14.28,0,0,1,8.82,0c5,1.54,8.34,0,8.34,0"/><rect class="cls-4" x="33.56" y="0.62" width="125.74" height="29.05"/><path d="M51.55,5A5.05,5.05,0,0,1,54.16,9.2a5.06,5.06,0,0,1-2.61,4.2,11,11,0,0,1-6.32,1.77A11,11,0,0,1,38.9,13.4a5.06,5.06,0,0,1-2.61-4.2A5.05,5.05,0,0,1,38.9,5a11.16,11.16,0,0,1,6.33-1.75A11.14,11.14,0,0,1,51.55,5ZM39.1,25.77s0-6.44,0-6.44H56.29v-.8H39.08V15.64H62.86v6.58H45.16v.65h17.7v2.9ZM43.22,7.26a2.49,2.49,0,0,0-.85,1.94,2.73,2.73,0,0,0,1.55,2.43,1.83,1.83,0,0,0,.46.18,3,3,0,0,0,2.85-.7,2.52,2.52,0,0,0,.85-1.91,2.49,2.49,0,0,0-.85-1.94,3,3,0,0,0-4,0ZM62.86,14.7H56.29V3.18h6.57Z"/><path d="M82.05,5.14q2.76,1.73,2.76,4.2t-2.76,4.2a12.24,12.24,0,0,1-6.72,1.77,12.19,12.19,0,0,1-6.72-1.77q-2.77-1.77-2.77-4.2t2.77-4.2a13.92,13.92,0,0,1,13.44,0Zm10.85-2V5.7h3V9h-3v1.82h3v3.27h-3v3.59H90.65a5,5,0,0,1,1.73,1.62,3.47,3.47,0,0,1,.52,1.84q0,2.28-3.33,3.78a20.25,20.25,0,0,1-8.31,1.49A20.13,20.13,0,0,1,73,24.85Q69.61,23.32,69.61,21c0-1.59,1.13-2.88,3.39-3.89a20.71,20.71,0,0,1,8.37-1.5c1,0,1.9,0,2.81.12s1.79.19,2.64.35V3.18Zm-19.79,4a2.43,2.43,0,0,0-.88,1.89A2.48,2.48,0,0,0,73.11,11a3.16,3.16,0,0,0,2.22.79A3.22,3.22,0,0,0,77.52,11a2.48,2.48,0,0,0,.91-1.92,2.42,2.42,0,0,0-.91-1.89,3.31,3.31,0,0,0-2.19-.77A3.24,3.24,0,0,0,73.11,7.21Zm4.21,12.27c-1.09.41-1.63.91-1.63,1.5s.54,1.06,1.63,1.49a12.42,12.42,0,0,0,7.87,0c1.09-.43,1.63-.93,1.63-1.49s-.54-1.09-1.63-1.5a12.8,12.8,0,0,0-7.87,0Z"/><path d="M113.07,5.39c1.8,1.17,2.69,2.58,2.69,4.23s-.89,3-2.69,4.2a11.6,11.6,0,0,1-6.52,1.77,11.47,11.47,0,0,1-6.49-1.77q-2.66-1.77-2.66-4.2a5,5,0,0,1,2.66-4.23,11.63,11.63,0,0,1,6.49-1.75A11.75,11.75,0,0,1,113.07,5.39Zm10.72,20.75h-6.08V20H100.44V16.76h23.35ZM104.39,7.68a2.42,2.42,0,0,0-.91,1.94,2.45,2.45,0,0,0,.91,1.91,3.44,3.44,0,0,0,4.39,0,2.47,2.47,0,0,0,.9-1.91,2.44,2.44,0,0,0-.9-1.94,3.51,3.51,0,0,0-4.39,0Zm19.4-4.5V5.79h3V9.06h-3v1.16h3v3.27h-3v3h-6.08V3.18Z"/><path d="M154.86,17.37v8.26H133.7c-1.25,0-2.55,0-2.55,0V17.37H140v-.88H129.26V13.22h27.49v3.27h-10.7v.88ZM131,9.16h2.12V6.82h-2V3.56h23.83V6.82h-2V9.16h2.13v3.26H131Zm6.26,13.21h11.55V20.64H137.23Zm2-13.21h7.66V6.82h-7.66Z"/></svg>