<?xml version="1.0" encoding="utf-8"?>
<!-- Generator: Adobe Illustrator 24.0.1, SVG Export Plug-In . SVG Version: 6.00 Build 0)  -->
<svg version="1.1" id="Layer_1" xmlns="http://www.w3.org/2000/svg" xmlns:xlink="http://www.w3.org/1999/xlink" x="0px" y="0px"
	 viewBox="0 0 251.2 251" style="enable-background:new 0 0 251.2 251;" xml:space="preserve">
<style type="text/css">
	.st0{fill:#737474;}
	.st1{fill:#FFFFFF;}
</style>
<g>
	<path class="st0" d="M250.9,200.6c0,27.6-22.4,50.1-50.1,50.1H50.6c-27.6,0-50.1-22.4-50.1-50.1V50.4C0.6,22.7,23,0.3,50.6,0.3
		h150.2c27.7,0,50.1,22.4,50.1,50.1V200.6z"/>
	<path class="st1" d="M199.1,19.4H52.4c-18.7,0-33.9,15.2-33.9,34V134c0,18.8,15.2,34,33.9,34h50.5l17.2,28.1c0,0,0.2,0.3,0.6,0.8
		c1,1.7,2.9,2.9,5,2.9c2.1,0,4-1.2,5-2.9c0.4-0.5,0.6-0.8,0.6-0.8l17.2-28.1h50.5c18.7,0,33.9-15.2,33.9-34V53.4
		C232.9,34.6,217.8,19.4,199.1,19.4z"/>
	<g>
		<g>
			<path class="st0" d="M66.2,78.5c0,0-5.9,0-11.2,5.2V62.9H41.9v54.7h13.3v-4.3c0,0,3.1,5.6,11,5.6c0,0,18.5-0.7,18.5-20.4
				C84.7,98.5,84,78.5,66.2,78.5z M63.3,107.4c-4.7,0-8.4-3.8-8.4-8.4c0-4.7,3.8-8.4,8.4-8.4c4.7,0,8.4,3.8,8.4,8.4
				C71.7,103.6,67.9,107.4,63.3,107.4z"/>
			<path class="st0" d="M88.9,61.6v12.7c0,0,6-0.3,6,10.9v32.4h12.7V82.2C107.5,82.2,108.1,61.6,88.9,61.6z"/>
			<path class="st0" d="M138.5,78.7c0,0-21.7,0-21.7,20.3c0,0-0.7,20,21.7,20c0,0,22.2,0,22.2-20C160.6,98.9,161.4,78.7,138.5,78.7z
				 M138.5,107.4c-4.7,0-8.4-3.8-8.4-8.4c0-4.7,3.8-8.4,8.4-8.4c4.7,0,8.4,3.8,8.4,8.4C146.9,103.6,143.1,107.4,138.5,107.4z"/>
			<path class="st0" d="M196.9,80v3.7c0,0-3.8-5-11-5c0,0-18.6-0.8-18.6,20.1c0,0-0.2,19.5,18.1,19.5c0,0,7.4,0.3,11.5-5v3.1
				c0,0,0.9,9.6-8.4,9.6h-3.2v11.6h5.1c0,0,19.2,0.2,19.2-20.5V80H196.9z M189,107.4c-4.7,0-8.4-3.8-8.4-8.4c0-4.7,3.8-8.4,8.4-8.4
				c4.7,0,8.4,3.8,8.4,8.4C197.5,103.6,193.7,107.4,189,107.4z"/>
		</g>
	</g>
</g>
</svg>
