<svg width="25" height="25" viewBox="0 0 25 25" fill="none" xmlns="http://www.w3.org/2000/svg">
<path d="M25 12.5C25 5.59643 19.4036 -1.90735e-06 12.5 -1.90735e-06C5.59644 -1.90735e-06 0 5.59643 0 12.5C0 18.7391 4.57107 23.9104 10.5469 24.8481V16.1133H7.37305V12.5H10.5469V9.74609C10.5469 6.61328 12.413 4.88281 15.2683 4.88281C16.6359 4.88281 18.0664 5.12695 18.0664 5.12695V8.20312H16.4902C14.9374 8.20312 14.4531 9.16667 14.4531 10.1552V12.5H17.9199L17.3657 16.1133H14.4531V24.8481C20.4289 23.9104 25 18.7391 25 12.5Z" fill="#C7D5E0"/>
</svg>
