<svg xmlns="http://www.w3.org/2000/svg" xmlns:xlink="http://www.w3.org/1999/xlink" viewBox="0 0 97 30"><defs><style>.cls-1{fill:none;}.cls-2{clip-path:url(#clip-path);}.cls-3{fill:#c7d5e0;fill-rule:evenodd;}</style><clipPath id="clip-path"><rect class="cls-1" x="0.28" y="0.77" width="95.81" height="28.88"/></clipPath></defs><title>mainlogo_l</title><g id="logos"><g class="cls-2"><path class="cls-3" d="M14.67.77A14.44,14.44,0,0,0,.28,14.06L8,17.26a4,4,0,0,1,2.3-.71h.23l3.44-5v-.07A5.46,5.46,0,0,1,23.3,7.66a5.35,5.35,0,0,1,1.48,2.79A5.43,5.43,0,0,1,22.46,16a5.4,5.4,0,0,1-3,.92h-.13l-4.89,3.5v.19a4.09,4.09,0,0,1-1.06,2.75,4,4,0,0,1-2.63,1.33,4.09,4.09,0,0,1-4.41-3.27L.79,19.17A14.44,14.44,0,1,0,14.68.79ZM9.33,22.69,7.55,22a3.08,3.08,0,0,0,4.53,1.19,3,3,0,0,0,1.08-1.37A3,3,0,0,0,13.32,20a3.06,3.06,0,0,0-.81-1.55,3,3,0,0,0-3.27-.72l1.83.76a2.26,2.26,0,0,1,1.22,2.95,2.33,2.33,0,0,1-1.23,1.22A2.26,2.26,0,0,1,9.33,22.69ZM22.47,9.48a3.63,3.63,0,0,1-5,5,3.64,3.64,0,0,1-1.55-3.73,3.61,3.61,0,0,1,2.85-2.85,3.64,3.64,0,0,1,3.73,1.55Zm-5.28.5a2.71,2.71,0,0,0-.46,1.51h0a2.72,2.72,0,0,0,.2,1A2.75,2.75,0,0,0,18.41,14a2.88,2.88,0,0,0,1.05.2A2.75,2.75,0,0,0,22,12.54,2.75,2.75,0,0,0,22.13,11a2.66,2.66,0,0,0-.74-1.39A2.82,2.82,0,0,0,20,8.82,2.76,2.76,0,0,0,18.41,9,2.7,2.7,0,0,0,17.19,10Zm27.35.68-1,1.7a4.89,4.89,0,0,0-2.64-.84c-1,0-1.63.42-1.63,1.17s.79,1,2,1.46h0l.71.25c1.77.62,2.79,1.36,2.79,3,0,2.22-1.74,3.46-4.24,3.46a7.66,7.66,0,0,1-3.83-1l.7-1.89a6.73,6.73,0,0,0,3,.78c1.32,0,2-.49,2-1.21s-.82-1-2.18-1.48h0l-.33-.11c-1.76-.59-3-1.36-3-3.16,0-2,1.63-3.18,4-3.18A6.17,6.17,0,0,1,44.54,10.66Zm7.56,10V11.73h3.3v-2H46.52v2h3.3v8.93Zm8.1-8.93v2.45h4.37v2H60.2V18.7h5.06v2H57.93V9.77h7.33v2Zm9.43,8.93.72-2.12H74.6l.73,2.11H77.8L73.61,9.77H71.32L67.24,20.66ZM71,16.73l1.48-4.36L74,16.73ZM89.5,14l-3,6.36H85.24L82.3,14v6.62H80.12V9.77h2.17L86,17.63l3.54-7.86h2.19V20.65H89.5Zm6.33-2A1.59,1.59,0,0,0,96,10.56a1.63,1.63,0,0,0-.33-.49,1.46,1.46,0,0,0-.49-.33,1.5,1.5,0,0,0-.59-.1,1.45,1.45,0,0,0-.83.25,1.5,1.5,0,0,0-.65,1.55,1.51,1.51,0,0,0,2.05,1.1A1.48,1.48,0,0,0,95.83,12Zm-2.28-.15a1.2,1.2,0,0,1-.22-.69,1.15,1.15,0,0,1,.08-.49,1.17,1.17,0,0,1,.27-.42,1.24,1.24,0,0,1,.9-.36,1.25,1.25,0,0,1,1.16.77,1.19,1.19,0,0,1,.07.72,1.18,1.18,0,0,1-.34.65,1.26,1.26,0,0,1-.63.34,1.29,1.29,0,0,1-.73-.06A1.26,1.26,0,0,1,93.55,11.84Zm1.58-1c0-.23-.13-.44-.52-.44h-.54v1.5h.24v-.58h.31l.29.58h.3l-.35-.65a.45.45,0,0,0,.19-.17A.43.43,0,0,0,95.13,10.81Zm-.55.26h-.25V10.6h.26c.21,0,.28.09.28.23a.36.36,0,0,1,0,.1l-.06.08-.09.05A.21.21,0,0,1,94.58,11.07Z"/></g></g></svg>