<?xml version="1.0" encoding="utf-8"?>
<!-- Generator: Adobe Illustrator 24.0.1, SVG Export Plug-In . SVG Version: 6.00 Build 0)  -->
<svg version="1.1" id="Layer_1_copy" xmlns="http://www.w3.org/2000/svg" xmlns:xlink="http://www.w3.org/1999/xlink" x="0px"
	 y="0px" viewBox="0 0 50 50" style="enable-background:new 0 0 50 50;" xml:space="preserve">
<style type="text/css">
	.st0{fill:#FFFFFF;}
	.st1{fill:none;stroke:#FFFFFF;stroke-width:2;}
</style>
<title>mypage</title>
<path class="st0" d="M32.5,34.2c6.7-4,8.9-12.6,4.9-19.3S24.8,6,18.1,10s-8.9,12.6-4.9,19.3c1.2,2,2.9,3.7,4.9,4.9
	c-4.2,1.4-7.9,3.9-10.6,7.3l0.4,0.2L8,41.7c0.7,0.4,1.3,1,1.7,1.7l0.1,0.2c6.8-8.6,19.4-10,27.9-3.2c0.9,0.7,1.7,1.5,2.5,2.4
	c0.2-0.3,0.4-0.5,0.6-0.7c0.2-0.2,0.5-0.4,0.8-0.6l0.3-0.3c0.2-0.2,0.4-0.4,0.6-0.5C39.8,37.7,36.4,35.4,32.5,34.2z M25.3,33
	c-6.1,0-11-4.9-11-11s4.9-11,11-11s11,4.9,11,11c0,3.7-1.8,7.1-4.9,9.2C29.6,32.4,27.5,33,25.3,33z"/>
<path class="st1" d="M25,1L25,1c13.3,0,24,10.7,24,24l0,0c0,13.3-10.7,24-24,24l0,0C11.7,49,1,38.3,1,25l0,0C1,11.7,11.7,1,25,1z"/>
</svg>
