<svg width="23" height="18" viewBox="0 0 23 18" fill="none" xmlns="http://www.w3.org/2000/svg">
<mask id="mask0_66_545" style="mask-type:luminance" maskUnits="userSpaceOnUse" x="0" y="0" width="23" height="18">
<path d="M23 18V0L0 0L0 18H23Z" fill="white"/>
</mask>
<g mask="url(#mask0_66_545)">
<path fill-rule="evenodd" clip-rule="evenodd" d="M1.72633 15.3146C-0.0874776 14.7957 -0.389894 13.7169 0.436642 13.0953C1.20118 12.5196 2.50169 12.0884 2.50169 12.0884L7.8722 10.1517V12.359L4.00759 13.7622C3.32394 14.0112 3.21952 14.3626 3.7749 14.5467C4.32993 14.7309 5.33421 14.6783 6.01855 14.4294L7.8722 13.7472V15.722C7.75491 15.7439 7.62422 15.7652 7.50264 15.7852C5.6483 16.0931 3.67306 15.9648 1.72633 15.3146ZM13.0567 15.5443L19.0827 13.3673C19.7671 13.1183 19.8715 12.7671 19.3161 12.5828C18.7607 12.3986 17.7561 12.451 17.0721 12.7002L13.0567 14.1347V11.852L13.2887 11.7722C13.2887 11.7722 14.4488 11.356 16.0802 11.1733C17.7116 10.9909 19.7097 11.1978 21.2776 11.8003C23.0456 12.3669 23.2444 13.2015 22.795 13.7766C22.3458 14.3514 21.245 14.7611 21.245 14.7611L13.0567 17.7441V15.5443ZM13.7613 1.4345C16.9342 2.53858 18.0094 3.91369 18.0094 7.0112C18.0094 10.03 16.1716 11.1745 13.836 10.0314V4.40555C13.836 3.74596 13.7169 3.13827 13.1055 2.96548C12.637 2.81308 12.3465 3.25461 12.3465 3.91421V18L8.59999 16.794V0C10.1933 0.299579 12.5137 1.00812 13.7613 1.4345ZM22.1045 16.719C22.1045 16.7665 22.0921 16.7996 22.0674 16.8167C22.0403 16.8353 22.0027 16.8447 21.9553 16.8447H21.7188V16.6007H21.9693C22.0042 16.6007 22.0317 16.6057 22.0514 16.6157C22.0871 16.6338 22.1045 16.6676 22.1045 16.719ZM22.274 17.276C22.2625 17.2709 22.2544 17.2584 22.2489 17.2378C22.2451 17.2241 22.2427 17.2014 22.242 17.172L22.2377 17.0607C22.236 17.0081 22.2261 16.9705 22.2072 16.9461C22.1946 16.9292 22.1768 16.9161 22.1563 16.9036C22.1823 16.886 22.2044 16.8654 22.2207 16.8404C22.2427 16.8053 22.2542 16.7614 22.2542 16.7083C22.2542 16.6057 22.2118 16.5343 22.1282 16.4955C22.0854 16.4762 22.0312 16.4661 21.9669 16.4661H21.5898H21.5707V16.4856V17.3122V17.331H21.5898H21.7001H21.7188V17.3122V16.9767H21.9515C21.9934 16.9767 22.0243 16.9811 22.0425 16.99C22.0731 17.0049 22.089 17.0356 22.0909 17.0819L22.0978 17.2202C22.0993 17.2533 22.1014 17.276 22.104 17.2885C22.1064 17.3016 22.1098 17.3122 22.1144 17.3211L22.1199 17.331H22.1311H22.2663H22.2853V17.3122V17.2934V17.281L22.274 17.276ZM21.2594 16.9149C21.2594 16.7421 21.3259 16.58 21.4461 16.458C21.5665 16.3359 21.7263 16.2684 21.8965 16.2684C22.0669 16.2684 22.2268 16.3359 22.347 16.458C22.4674 16.58 22.5336 16.7421 22.5336 16.9149C22.5336 17.2709 22.2477 17.5607 21.8965 17.5607C21.7263 17.5607 21.5665 17.4937 21.4461 17.3718C21.3259 17.2497 21.2594 17.0875 21.2594 16.9149ZM21.8965 17.6915C22.1011 17.6915 22.2934 17.6107 22.438 17.4637C22.5828 17.3172 22.6623 17.122 22.6623 16.9149C22.6623 16.7071 22.5828 16.5124 22.438 16.3654C22.2934 16.2189 22.1011 16.1383 21.8965 16.1383C21.4746 16.1383 21.1308 16.4861 21.1308 16.9149C21.1308 17.122 21.2105 17.3172 21.3551 17.4637C21.4998 17.6107 21.692 17.6915 21.8965 17.6915Z" fill="#CBCBCB"/>
</g>
</svg>
