<svg width="133" height="133" viewBox="0 0 133 133" fill="none" xmlns="http://www.w3.org/2000/svg">
<path d="M65.9706 0C31.2059 0 2.69797 26.8142 0 60.8946L35.4874 75.5597C38.4943 73.5127 42.1247 72.3044 46.0365 72.3044C46.3841 72.3044 46.7262 72.3265 47.0738 72.3375L62.8588 49.4848V49.1593C62.8588 35.3936 74.0479 24.199 87.8191 24.199C101.579 24.199 112.779 35.4046 112.779 49.1758C112.779 62.9471 101.579 74.1417 87.8191 74.1417H87.2398L64.7512 90.2026C64.7512 90.4895 64.7733 90.7819 64.7733 91.0799C64.7733 101.425 56.4146 109.817 46.0696 109.817C37.0488 109.817 29.4294 103.345 27.6914 94.771L2.28417 84.2494C10.1519 112.04 35.6639 132.416 65.9706 132.416C102.534 132.416 132.173 102.771 132.173 66.2078C132.173 29.6445 102.528 0 65.9706 0ZM41.4792 100.47L33.3522 97.1048C34.7977 100.101 37.2916 102.617 40.6019 104.001C47.7579 106.975 56.0118 103.582 58.9856 96.4151C60.4367 92.9392 60.4422 89.1378 59.0132 85.6619C57.5842 82.186 54.8752 79.477 51.4159 78.0314C47.9731 76.5969 44.2985 76.6576 41.0544 77.8659L49.4572 81.3418C54.7318 83.5487 57.2311 89.6178 55.0242 94.8868C52.8338 100.167 46.7593 102.666 41.4792 100.47ZM104.459 49.1427C104.459 39.973 96.9944 32.508 87.8247 32.508C78.6383 32.508 71.1899 39.973 71.1899 49.1427C71.1899 58.3291 78.6383 65.7775 87.8247 65.7775C97 65.7775 104.459 58.3291 104.459 49.1427ZM75.3666 49.1152C75.3666 42.2075 80.9556 36.6129 87.8633 36.6129C94.7544 36.6129 100.366 42.2075 100.366 49.1152C100.366 56.0173 94.7544 61.6119 87.8633 61.6119C80.9501 61.6119 75.3666 56.0173 75.3666 49.1152Z" fill="#C7D5E0"/>
</svg>
