<svg width="25" height="21" viewBox="0 0 25 21" fill="none" xmlns="http://www.w3.org/2000/svg">
<path d="M22.3564 5.27915C22.3716 5.49833 22.3716 5.7175 22.3716 5.93869C22.3716 12.6786 17.2506 20.4517 7.88668 20.4517V20.4476C5.12055 20.4517 2.41188 19.6578 0.083252 18.1609C0.48547 18.2094 0.889704 18.2337 1.29495 18.2347C3.58728 18.2367 5.8141 17.466 7.61753 16.047C5.4391 16.0056 3.52882 14.5824 2.86148 12.5048C3.62458 12.6523 4.41087 12.622 5.15986 12.417C2.78486 11.9362 1.0762 9.84545 1.0762 7.41736C1.0762 7.39514 1.0762 7.37393 1.0762 7.35272C1.78386 7.74764 2.5762 7.96681 3.38668 7.99105C1.14978 6.4932 0.460268 3.51162 1.81107 1.18049C4.39575 4.3671 8.20926 6.30432 12.303 6.50936C11.8927 4.73778 12.4532 2.88137 13.7758 1.63601C15.8262 -0.295145 19.051 -0.196164 20.9784 1.85721C22.1185 1.63197 23.2113 1.21281 24.2113 0.618922C23.8312 1.79963 23.0359 2.80258 21.9734 3.43991C22.9824 3.32072 23.9683 3.05004 24.8968 2.63694C24.2133 3.66312 23.3524 4.55699 22.3564 5.27915Z" fill="#C7D5E0"/>
</svg>
