<svg width="18" height="18" viewBox="0 0 18 18" fill="none" xmlns="http://www.w3.org/2000/svg">
<path d="M9.00634 7.22308C11.7173 9.28866 16.3297 14.3564 14.9292 15.7805C13.3361 17.1661 11.2676 18 9.00634 18C6.7451 18 4.65088 17.1661 3.08343 15.7805C1.67015 14.3435 6.29542 9.27583 8.98064 7.23591C8.98064 7.22308 9.00634 7.22308 9.00634 7.22308Z" fill="#CBCBCB"/>
<path d="M13.6959 1.32145C12.3211 0.487527 10.8179 0 9.00637 0C7.19481 0 5.67875 0.487527 4.30402 1.32145C4.27832 1.32145 4.27832 1.34711 4.27832 1.35994C4.27832 1.37277 4.30402 1.3856 4.31686 1.3856C6.06419 1.00071 8.71087 2.50178 8.96783 2.66857H9.00637C9.25048 2.51461 11.8972 1.01354 13.6573 1.3856C13.683 1.3856 13.6959 1.3856 13.6959 1.35994C13.6959 1.33428 13.7216 1.32145 13.6959 1.32145Z" fill="#CBCBCB"/>
<path d="M2.69807 2.57877C2.67238 2.57877 2.67238 2.60443 2.65953 2.60443C1.01499 4.2338 0 6.50465 0 8.9936C0 11.0335 0.69379 12.9323 1.83726 14.4462C1.83726 14.4719 1.86296 14.4719 1.8758 14.4719C1.9015 14.4719 1.9015 14.4462 1.8758 14.4334C1.19486 12.278 4.7152 7.14613 6.52677 5.00358L6.55246 4.97792C6.55246 4.95226 6.55246 4.95226 6.52677 4.95226C3.7773 2.21954 2.85225 2.51463 2.69807 2.57877Z" fill="#CBCBCB"/>
<path d="M11.4732 4.92659L11.4475 4.95225C11.4475 4.95225 11.4475 4.97791 11.4732 4.97791C13.2976 7.13329 16.7923 12.2651 16.1242 14.3949V14.4334C16.1499 14.4334 16.1627 14.4334 16.1627 14.4077C17.3062 12.9066 18 10.995 18 8.9551C18 6.46615 16.985 4.20813 15.3276 2.56593C15.3019 2.54027 15.3019 2.54027 15.2891 2.54027C15.1477 2.51461 14.2355 2.21953 11.4732 4.92659Z" fill="#CBCBCB"/>
</svg>
